<?xml version="1.0" encoding="utf-8"?>
<?xml-stylesheet type="text/xsl" href="rss1.xsl"?>
<rss version="2.0" xmlns:atom="http://www.w3.org/2005/Atom" xmlns:content="http://purl.org/rss/1.0/modules/content/" xmlns:dc="http://purl.org/dc/elements/1.1/" xmlns:media="http://search.yahoo.com/mrss/">
<channel>
 <title>Getty</title>
 <link>http://www.gettyimg.com/</link>
 <atom:link href="http://www.gettyimg.com/" rel="self" type="application/rss+xml" />

 
                <item>
                <title><![CDATA[【Requests】[REQ AUD] - VOLBEAT Discography Flac 24bit (Qobuz/HRA)]]></title>
                <link><![CDATA[https://sharemania.us/threads/volbeat-discography-flac-24bit-qobuz-hra.241736/]]></link>
                <description><![CDATA[<article>
<blockquote class="messageText SelectQuoteContainer ugc baseHtml">
hi there, can someone do this?
<div class="messageTextEndMarker">&nbsp;</div>
</blockquote>
</article>]]></description>
                <author><![CDATA[sams88]]></author>
                </item>

                
                <item>
                <title><![CDATA[【MASTER &amp; MASTER RIP】MASTER - YUQI - Could It Be [Master 4K]]]></title>
                <link><![CDATA[https://sharemania.us/threads/yuqi-could-it-be-master-4k.241737/]]></link>
                <description><![CDATA[<article>
<blockquote class="messageText SelectQuoteContainer ugc baseHtml">
<div style="text-align: center"><img src="https://i.ibb.co/y6b6PG9/20240408175629.gif" class="bbCodeImage LbImage" alt="[​IMG]" data-url="https://i.ibb.co/y6b6PG9/20240408175629.gif" style=""><br>
​</div>
<div class="ToggleTriggerAnchor bbCodeSpoilerContainer">
<button type="button" class="button bbCodeSpoilerButton ToggleTrigger Tooltip JsOnly" data-target="> .SpoilerTarget"><span>Spoiler: <span class="SpoilerTitle">MASTER</span></span></button>
<div class="SpoilerTarget bbCodeSpoilerText">
<div class="bbCodeBlock bbCodeCode">
<div class="type">Code:</div>
<pre>General
Complete name                            : YUQI - Could It Be.mp4
Format                                   : MPEG-4
Format profile                           : Base Media / Version 2
Codec ID                                 : mp42 (isom/mp41/mp42)
File size                                : 1.33 GiB
Duration                                 : 3 min 56 s
Overall bit rate                         : 48.2 Mb/s
Frame rate                               : 23.976 FPS
Movie name                               : Clean Master
Movie_More                               : 이 비디오 정보: Clean Master
Performer                                : LSR
Keywords                                 : 2024. 3. 27.,film burn
Encoded date                             : 2024-03-27 10:59:16 UTC
Tagged date                              : 2024-03-27 11:02:55 UTC
Cover type                               : Thumbnail

Video
ID                                       : 2
Format                                   : AVC
Format/Info                              : Advanced Video Codec
Format profile                           : High@L5.1
Format settings                          : CABAC / 1 Ref Frames
Format settings, CABAC                   : Yes
Format settings, Reference frames        : 1 frame
Codec ID                                 : avc1
Codec ID/Info                            : Advanced Video Coding
Duration                                 : 3 min 56 s
Bit rate                                 : 48.1 Mb/s
Width                                    : 3 840 pixels
Height                                   : 2 160 pixels
Display aspect ratio                     : 16:9
Frame rate mode                          : Constant
Frame rate                               : 23.976 (24000/1001) FPS
Color space                              : YUV
Chroma subsampling                       : 4:2:0
Bit depth                                : 8 bits
Scan type                                : Progressive
Bits/(Pixel*Frame)                       : 0.242
Stream size                              : 1.32 GiB (100%)
Title                                    : Core Media Video
Encoded date                             : 2024-03-27 10:59:16 UTC
Tagged date                              : 2024-03-27 11:02:55 UTC
Color range                              : Limited
Color primaries                          : BT.709
Transfer characteristics                 : BT.709
Matrix coefficients                      : BT.709
Codec configuration box                  : avcC

Audio
ID                                       : 1
Format                                   : AAC LC
Format/Info                              : Advanced Audio Codec Low Complexity
Codec ID                                 : 2 / 40 / mp4a-40-2
Duration                                 : 3 min 56 s
Source duration                          : 3 min 56 s
Bit rate mode                            : Constant
Bit rate                                 : 128 kb/s
Channel(s)                               : 2 channels
Channel layout                           : L R
Sampling rate                            : 48.0 kHz
Frame rate                               : 46.875 FPS (1024 SPF)
Compression mode                         : Lossy
Stream size                              : 3.58 MiB (0%)
Source stream size                       : 3.58 MiB (0%)
Title                                    : Core Media Audio
Language                                 : Korean
Encoded date                             : 2024-03-27 10:59:16 UTC
Tagged date                              : 2024-03-27 11:02:55 UTC

Image
Format                                   : JPEG
Width                                    : 3 840 pixels
Height                                   : 2 160 pixels
Color space                              : YUV
Chroma subsampling                       : 4:2:0
Bit depth                                : 8 bits
Compression mode                         : Lossy
Stream size                              : 1.08 MiB (100%) / 1.08 MiB (0%) / 1.08 MiB (0%)

</pre>
</div><div style="text-align: center">​</div></div>
</div><div style="text-align: center"><br>
<div class="bbCodeBlock bbCodeVfcHH HiddenContent">
<div class="attribution type">Hidden Content:</div>
<blockquote>You must reply before you can see the hidden data contained here.</blockquote>
</div></div>
<div class="messageTextEndMarker">&nbsp;</div>
</blockquote>
</article>]]></description>
                <author><![CDATA[fstambuk]]></author>
                </item>

                </channel></rss>